<svg width="1280" height="640" viewBox="0 0 1280 640" fill="none" xmlns="http://www.w3.org/2000/svg" role="img" aria-labelledby="title desc">
  <title id="title">fluoh hero image placeholder</title>
  <desc id="desc">Placeholder for a polished product image showing FlutterOH SDK selection, dependency checks, and a terminal workflow.</desc>
  <rect width="1280" height="640" rx="28" fill="#0F172A"/>
  <rect x="52" y="52" width="1176" height="536" rx="22" fill="#111827" stroke="#334155" stroke-width="2"/>
  <rect x="92" y="94" width="1096" height="70" rx="14" fill="#1F2937"/>
  <circle cx="126" cy="129" r="10" fill="#EF4444"/>
  <circle cx="158" cy="129" r="10" fill="#F59E0B"/>
  <circle cx="190" cy="129" r="10" fill="#10B981"/>
  <text x="232" y="137" fill="#CBD5E1" font-family="Menlo, Consolas, monospace" font-size="24">fluoh sdk use 3.35 --pub-get</text>
  <rect x="92" y="204" width="520" height="300" rx="18" fill="#020617" stroke="#1E293B" stroke-width="2"/>
  <text x="126" y="254" fill="#38BDF8" font-family="Menlo, Consolas, monospace" font-size="24">$ fluoh pub check</text>
  <text x="126" y="306" fill="#E2E8F0" font-family="Menlo, Consolas, monospace" font-size="22">3 ready</text>
  <text x="126" y="348" fill="#E2E8F0" font-family="Menlo, Consolas, monospace" font-size="22">0 manual</text>
  <text x="126" y="390" fill="#E2E8F0" font-family="Menlo, Consolas, monospace" font-size="22">SDK: 3.35.8-ohos-0.0.3</text>
  <text x="126" y="454" fill="#22C55E" font-family="Menlo, Consolas, monospace" font-size="24">Next: fluoh pub fix</text>
  <rect x="668" y="204" width="520" height="300" rx="18" fill="#F8FAFC"/>
  <rect x="716" y="252" width="424" height="54" rx="10" fill="#DBEAFE"/>
  <rect x="716" y="338" width="320" height="54" rx="10" fill="#DCFCE7"/>
  <rect x="716" y="424" width="380" height="54" rx="10" fill="#FEF3C7"/>
  <text x="744" y="287" fill="#1E3A8A" font-family="Inter, Arial, sans-serif" font-size="24" font-weight="700">Select SDK</text>
  <text x="744" y="373" fill="#166534" font-family="Inter, Arial, sans-serif" font-size="24" font-weight="700">Fix pubspec</text>
  <text x="744" y="459" fill="#92400E" font-family="Inter, Arial, sans-serif" font-size="24" font-weight="700">Build HAP</text>
</svg>
